<?xml version="1.0" encoding="iso-8859-1"?>
<!-- Uploaded to: SVG Repo, www.svgrepo.com, Generator: SVG Repo Mixer Tools -->
<svg fill="#06D9F6" height="800px" width="800px" version="1.1" id="Layer_1" xmlns="http://www.w3.org/2000/svg" xmlns:xlink="http://www.w3.org/1999/xlink" 
	 viewBox="0 0 512 512" xml:space="preserve">
<g>
	<g>
		<g>
			<path d="M221.586,165.845C217.341,147.499,201.746,128,181.202,128h-10.539v-21.333c0-11.776-9.557-21.333-21.333-21.333
				s-21.333,9.557-21.333,21.333V128h-21.333V21.333C106.663,9.557,97.106,0,85.33,0S63.997,9.557,63.997,21.333V128H53.458
				c-20.544,0-36.139,19.499-40.235,37.205l-7.189,27.328c-11.029,33.301-3.413,65.963,2.667,92.203l2.624,11.541
				c5.824,26.965,8.917,47.808,10.005,66.389l0.043,64.043c0,47.04,38.251,85.291,85.291,85.291h21.333
				c47.04,0,85.291-38.251,85.291-85.291l0.021-62.827c1.109-19.797,4.203-40.64,10.027-67.605l2.624-11.541
				c6.059-26.069,13.589-58.496,2.901-91.563L221.586,165.845z M127.997,362.667h-21.333c-11.776,0-21.333-9.557-21.333-21.333
				S94.887,320,106.663,320h21.333c11.776,0,21.333,9.557,21.333,21.333S139.773,362.667,127.997,362.667z M170.663,256
				c0,23.531-19.136,42.667-42.667,42.667h-21.333c-23.531,0-42.667-19.136-42.667-42.667v-21.333
				c0-23.531,19.136-42.667,42.667-42.667h21.333c23.531,0,42.667,19.136,42.667,42.667V256z"/>
			<path d="M506.194,193.173l-7.253-27.328C494.653,147.499,479.079,128,458.535,128h-10.539v-21.333
				c0-11.776-9.557-21.333-21.333-21.333s-21.333,9.557-21.333,21.333V128h-21.333V21.333C383.997,9.557,374.439,0,362.663,0
				S341.33,9.557,341.33,21.333V128h-10.539c-20.544,0-36.139,19.499-40.235,37.205l-7.189,27.328
				c-11.029,33.301-3.413,65.963,2.667,92.203l2.624,11.541c5.824,26.965,8.917,47.808,10.005,66.389l0.043,64.043
				c0,47.04,38.251,85.291,85.291,85.291h21.333c47.04,0,85.291-38.251,85.291-85.291l0.021-62.827
				c1.131-19.797,4.203-40.64,10.027-67.605l2.624-11.541C509.351,258.667,516.882,226.24,506.194,193.173z M405.33,362.667h-21.333
				c-11.776,0-21.333-9.557-21.333-21.333S372.221,320,383.997,320h21.333c11.776,0,21.333,9.557,21.333,21.333
				S417.106,362.667,405.33,362.667z M447.997,256c0,23.531-19.136,42.667-42.667,42.667h-21.333
				c-23.531,0-42.667-19.136-42.667-42.667v-21.333c0-23.531,19.136-42.667,42.667-42.667h21.333
				c23.531,0,42.667,19.136,42.667,42.667V256z"/>
		</g>
	</g>
</g>
</svg>